 http://img853.imageshack.us/img853/9721/rundskop2011.jpg

Country.......: Belgium
Genre.........: Drama, Crime
Date release..: 02.02.2011 [World]
Director......: Michael R. Roskam
Writers.......: Michael R. Roskam
Duration......: 124 min.
More..........: http://www.imdb.com/title/tt1821593
Trailer.......: http://www.imdb.com/video/imdblink/vi341744921
Trailer.......:

Pilot :
The young Limburg cattle farmer Jacky Vanmarsenille is approached by an unscrupulous veterinarian to make a shady deal with a notorious West-Flemish beef trader. But the assassination of a federal policeman, and an unexpected confrontation with a mysterious secret from Jacky's past, set in motion a chain of events with farreaching consequences. BULLHEAD is an exciting tragedy about fate, lost innocence and friendship, about crime and punishment, but also about conflicting desires and the irreversibility of a man's destiny.

Cats :
Matthias Schoenaerts   	 ...  	Jacky Vanmarsenille
Jeroen Perceval 	... 	Diederik Maes
Jeanne Dandoy 	... 	Lucia Schepers
Barbara Sarafian 	... 	Eva Forrestier
Tibo Vandenborre 	... 	Antony De Greef
Frank Lammers 	... 	Sam Raymond (as Frank Lamers)
Sam Louwyck 	... 	Marc Decuyper
Robin Valvekens 	... 	Jonge Jacky Vanmarsenille
Baudoin Wolwertz 	... 	Jonge Diederik Maes
David Murgia 	... 	Jonge Bruno Schepers
Erico Salamone 	... 	Christian Filippini
Philippe Grand Henry 	... 	David Filippini
Kris Cuppens 	... 	Jean Vanmarsenille
Sofie Sente 	... 	Irene Vanmarsenille
Kristof Renson 	... 	Stieve Vanmarsenille 

Data Technical :
!!! SAMPLE !!!
Audio.....: German
Subtitles.: English .srt
Format                           : AVI
Format/Info                      : Audio Video Interleave
File size                        : 700 MiB
Duration                         : 2h 3mn
Overall bit rate                 : 792 Kbps
Writing application              : VirtualDubMod 1.5.4.1 (build 2178/release)
Writing library                  : VirtualDubMod build 2178/release
Video
ID                               : 0
Format                           : MPEG-4 Visual
Format profile                   : Advanced Simple@L5
Format settings, BVOP            : Yes
Format settings, QPel            : No
Format settings, GMC             : No warppoints
Format settings, Matrix          : Custom
Codec ID                         : XVID
Codec ID/Hint                    : XviD
Duration                         : 2h 3mn
Bit rate                         : 668 Kbps
Width                            : 720 pixels
Height                           : 304 pixels
Display aspect ratio             : 2.35:1
Frame rate                       : 25.000 fps
Color space                      : YUV
Chroma subsampling               : 4:2:0
Bit depth                        : 8 bits
Scan type                        : Progressive
Bits/(Pixel*Frame)               : 0.122
Stream size                      : 590 MiB (84%)
Writing library                  : XviD 62
Audio
ID                               : 1
Format                           : MPEG Audio
Format version                   : Version 1
Format profile                   : Layer 3
Mode                             : Joint stereo
Mode extension                   : MS Stereo
Codec ID                         : 55
Codec ID/Hint                    : MP3
Duration                         : 2h 3mn
Bit rate mode                    : Variable
Bit rate                         : 111 Kbps
Nominal bit rate                 : 128 Kbps
Channel(s)                       : 2 channels
Sampling rate                    : 48.0 KHz
Stream size                      : 98.4 MiB (14%)
Alignment                        : Aligned on interleaves
Interleave, duration             : 24 ms (0.60 video frame)
Interleave, preload duration     : 165 ms
Writing library                  : LAME3.98r
Encoding settings                : -m j -V 4 -q 2 -lowpass 17 --abr 128

Screen : 
http://img855.imageshack.us/img855/1402/rundskop2011s1.jpg 
http://img155.imageshack.us/img155/4641/rundskop2011s2.jpg 
http://img830.imageshack.us/img830/6387/rundskop2011s3.jpg 
http://img405.imageshack.us/img405/3316/rundskop2011s4.jpg 
http://img29.imageshack.us/img29/2100/rundskop2011s5.jpg